# Blender v3.6.10 OBJ File: 'fence.blend'
# www.blender.org
o Cube.001
v -0.100000 -0.000000 0.100000
v -0.100000 1.200000 0.100000
v -0.100000 -0.000000 -0.100000
v -0.100000 1.200000 -0.100000
v 0.100000 -0.000000 0.100000
v 0.100000 1.200000 0.100000
v 0.100000 -0.000000 -0.100000
v 0.100000 1.200000 -0.100000
v 2.000000 1.100000 -0.026701
v 2.000000 0.900000 -0.026701
v 2.000000 1.100000 0.026701
v 2.000000 0.900000 0.026701
v 0.000000 1.100000 -0.026701
v 0.000000 0.900000 -0.026701
v 0.000000 1.100000 0.026701
v 0.000000 0.900000 0.026701
v 2.000000 1.113664 0.016803
v 2.000000 0.913664 0.016803
v 2.000000 1.113664 0.063897
v 2.000000 0.913664 0.063897
v 0.000000 0.513664 0.016803
v 0.000000 0.313664 0.016803
v 0.000000 0.513664 0.063897
v 0.000000 0.313664 0.063897
v 2.100000 -0.000000 0.100000
v 2.100000 1.200000 0.100000
v 2.100000 -0.000000 -0.100000
v 2.100000 1.200000 -0.100000
v 1.900000 -0.000000 0.100000
v 1.900000 1.200000 0.100000
v 1.900000 -0.000000 -0.100000
v 1.900000 1.200000 -0.100000
v 0.000000 1.100000 -0.029906
v 0.000000 0.900000 -0.055143
v 0.000000 1.100000 -0.008049
v 0.000000 0.900000 -0.008049
v 2.000000 0.500000 -0.029906
v 2.000000 0.300000 -0.055143
v 2.000000 0.500000 -0.008049
v 2.000000 0.300000 -0.008049
v 0.000000 0.513664 -0.026701
v 0.000000 0.313664 -0.026701
v 0.000000 0.513664 0.026701
v 0.000000 0.313664 0.026701
v 2.000000 0.513664 -0.026701
v 2.000000 0.313664 -0.026701
v 2.000000 0.513664 0.026701
v 2.000000 0.313664 0.026701
v 0.000000 1.100000 -0.026701
v 0.000000 0.900000 -0.026701
v 0.000000 1.100000 0.026701
v 0.000000 0.900000 0.026701
v 2.000000 1.100000 -0.026701
v 2.000000 0.900000 -0.026701
v 2.000000 1.100000 0.026701
v 2.000000 0.900000 0.026701
v 0.000000 0.300000 0.024576
v 0.000000 0.500000 -0.000661
v 0.000000 0.300000 0.046433
v 0.000000 0.500000 0.046433
v 2.000000 0.900000 0.024576
v 2.000000 1.100000 -0.000661
v 2.000000 0.900000 0.046433
v 2.000000 1.100000 0.046433
vt 0.000000 0.000000
vt 0.000001 1.000000
vt 1.000000 1.000000
vt 0.999999 0.000000
vt -0.000000 0.194899
vt -0.000000 0.740354
vt 0.090909 0.740354
vt 0.090909 0.194899
vt 0.999999 0.000000
vt 1.000000 1.000000
vt 0.000001 1.000000
vt 0.000000 0.000000
vt 0.090909 0.194899
vt 0.090909 0.740354
vt -0.000000 0.740354
vt -0.000000 0.194899
vt -0.000000 0.545455
vt 0.090909 0.545455
vt 0.090909 0.454545
vt -0.000000 0.454545
vt 0.090909 0.545455
vt -0.000000 0.545455
vt -0.000000 0.454545
vt 0.090909 0.454545
vt 0.487863 0.603990
vt 0.487863 0.694899
vt 0.512137 0.694899
vt 0.512137 0.603990
vt 0.512137 0.603990
vt 0.512137 0.694899
vt 0.487863 0.694899
vt 0.487863 0.603990
vt 0.487863 0.337474
vt 0.487863 0.428383
vt 0.512137 0.428383
vt 0.512137 0.337474
vt 0.512137 0.337474
vt 0.512137 0.428383
vt 0.487863 0.428383
vt 0.487863 0.337474
vt 0.000000 0.000000
vt 0.999999 0.000000
vt 1.000000 1.000000
vt 0.000001 1.000000
vt 1.000000 0.194899
vt 0.909091 0.194899
vt 0.909091 0.740354
vt 1.000000 0.740354
vt 0.999999 0.000000
vt 0.000000 0.000000
vt 0.000001 1.000000
vt 1.000000 1.000000
vt 0.909091 0.194899
vt 1.000000 0.194899
vt 1.000000 0.740354
vt 0.909091 0.740354
vt 1.000000 0.545455
vt 1.000000 0.454545
vt 0.909091 0.454545
vt 0.909091 0.545455
vt 0.909091 0.545455
vt 0.909091 0.454545
vt 1.000000 0.454545
vt 1.000000 0.545455
vt 0.045455 0.512137
vt 0.045455 0.487863
vt 0.954545 0.487863
vt 0.954545 0.512137
vt 0.045455 0.603990
vt 0.954545 0.603990
vt 0.954545 0.694899
vt 0.045455 0.694899
vt 0.487863 0.603990
vt 0.512137 0.603990
vt 0.512137 0.694899
vt 0.487863 0.694899
vt 0.954545 0.512137
vt 0.954545 0.487863
vt 0.045455 0.487863
vt 0.045455 0.512137
vt 0.512137 0.603990
vt 0.487863 0.603990
vt 0.487863 0.694899
vt 0.512137 0.694899
vt 0.954545 0.603990
vt 0.045455 0.603990
vt 0.045455 0.694899
vt 0.954545 0.694899
vt 0.045455 0.512137
vt 0.045455 0.487863
vt 0.954545 0.487863
vt 0.954545 0.512137
vt 1.000000 1.000000
vt -0.000000 1.000000
vt 0.000000 0.745656
vt 1.000000 0.745656
vt 0.487863 0.337474
vt 0.512137 0.337474
vt 0.512137 0.428383
vt 0.487863 0.428383
vt 0.954545 0.512137
vt 0.954545 0.487863
vt 0.045455 0.487863
vt 0.045455 0.512137
vt 0.512137 0.337474
vt 0.487863 0.337474
vt 0.487863 0.428383
vt 0.512137 0.428383
vt -0.000000 1.000000
vt 1.000000 1.000000
vt 1.000000 0.745656
vt 0.000000 0.745656
vt 0.045455 0.512137
vt 0.045455 0.487863
vt 0.954545 0.487863
vt 0.954545 0.512137
vt 1.000000 0.254344
vt 0.000000 0.254344
vt 0.000000 0.000000
vt 1.000000 0.000000
vt 0.954545 0.512137
vt 0.954545 0.487863
vt 0.045455 0.487863
vt 0.045455 0.512137
vt 0.000000 0.254344
vt 1.000000 0.254344
vt 1.000000 0.000000
vt 0.000000 0.000000
vt 0.045455 0.512137
vt 0.045455 0.487863
vt 0.954545 0.487863
vt 0.954545 0.512137
vt 0.045455 0.603990
vt 0.954545 0.603990
vt 0.954545 0.694899
vt 0.045455 0.694899
vt 0.954545 0.512137
vt 0.954545 0.487863
vt 0.045455 0.487863
vt 0.045455 0.512137
vt 0.954545 0.603990
vt 0.045455 0.603990
vt 0.045455 0.694899
vt 0.954545 0.694899
vn -1.0000 0.0000 0.0000
vn 0.0000 0.0000 -1.0000
vn 1.0000 0.0000 0.0000
vn 0.0000 0.0000 1.0000
vn 0.0000 -1.0000 0.0000
vn 0.0000 1.0000 0.0000
vn 0.2873 0.9578 0.0000
vn -0.2873 -0.9578 0.0000
vn 0.0375 0.1251 -0.9914
vn -0.2873 0.9578 0.0000
vn 0.2873 -0.9578 0.0000
vn -0.0375 0.1251 0.9914
usemtl Material
s off
f 1/1/1 2/2/1 4/3/1 3/4/1
f 3/5/2 4/6/2 8/7/2 7/8/2
f 7/9/3 8/10/3 6/11/3 5/12/3
f 5/13/4 6/14/4 2/15/4 1/16/4
f 3/17/5 7/18/5 5/19/5 1/20/5
f 8/21/6 4/22/6 2/23/6 6/24/6
f 16/25/1 15/26/1 13/27/1 14/28/1
f 10/29/3 9/30/3 11/31/3 12/32/3
f 24/33/1 23/34/1 21/35/1 22/36/1
f 18/37/3 17/38/3 19/39/3 20/40/3
f 25/41/3 27/42/3 28/43/3 26/44/3
f 27/45/2 31/46/2 32/47/2 28/48/2
f 31/49/1 29/50/1 30/51/1 32/52/1
f 29/53/4 25/54/4 26/55/4 30/56/4
f 27/57/5 25/58/5 29/59/5 31/60/5
f 32/61/6 30/62/6 26/63/6 28/64/6
f 33/65/7 35/66/7 39/67/7 37/68/7
f 36/69/4 40/70/4 39/71/4 35/72/4
f 40/73/3 38/74/3 37/75/3 39/76/3
f 38/77/8 40/78/8 36/79/8 34/80/8
f 34/81/1 36/82/1 35/83/1 33/84/1
f 38/85/9 34/86/9 33/87/9 37/88/9
f 41/89/6 43/90/6 47/91/6 45/92/6
f 44/93/4 48/94/4 47/95/4 43/96/4
f 48/97/3 46/98/3 45/99/3 47/100/3
f 46/101/5 48/102/5 44/103/5 42/104/5
f 42/105/1 44/106/1 43/107/1 41/108/1
f 46/109/2 42/110/2 41/111/2 45/112/2
f 49/113/6 51/114/6 55/115/6 53/116/6
f 52/117/4 56/118/4 55/119/4 51/120/4
f 54/121/5 56/122/5 52/123/5 50/124/5
f 54/125/2 50/126/2 49/127/2 53/128/2
f 57/129/10 59/130/10 63/131/10 61/132/10
f 60/133/2 64/134/2 63/135/2 59/136/2
f 62/137/11 64/138/11 60/139/11 58/140/11
f 62/141/12 58/142/12 57/143/12 61/144/12
