# Blender v3.6.10 OBJ File: 'rock.blend'
# www.blender.org
mtllib RockModel.mtl
o Rock_Icosphere
v -0.009174 -0.250038 -0.043783
v 0.551277 0.000050 0.400522
v -0.210566 0.000050 0.648064
v -0.681422 0.000050 -0.000000
v -0.210566 0.000050 -0.648064
v 0.551277 0.000050 -0.400522
v 0.167121 0.352678 0.596468
v -0.341192 0.438294 0.168479
v -0.252075 0.630622 -0.348269
v 0.170721 0.562581 -0.414979
v 0.521501 0.565776 0.048846
v 0.085999 0.745708 0.037390
v 0.551277 0.000050 0.400522
v 0.551277 0.000050 0.400522
v 0.551277 0.000050 0.400522
v -0.210566 0.000050 0.648064
v -0.210566 0.000050 0.648064
v 0.551277 0.000050 -0.400522
v 0.551277 0.000050 -0.400522
v -0.681422 0.000050 -0.000000
v -0.681422 0.000050 -0.000000
v -0.210566 0.000050 -0.648064
v -0.210566 0.000050 -0.648064
v 0.521501 0.565776 0.048846
v 0.521501 0.565776 0.048846
v 0.167121 0.352678 0.596468
v -0.252075 0.630622 -0.348269
v -0.252075 0.630622 -0.348269
v -0.252075 0.630622 -0.348269
v 0.085999 0.745708 0.037390
vt 0.181819 0.000000
vt 0.272728 0.157461
vt 0.090910 0.157461
vt 0.363637 0.000000
vt 0.454546 0.157461
vt 0.909091 0.000000
vt 1.000000 0.157461
vt 0.818182 0.157461
vt 0.727273 0.000000
vt 0.636364 0.157461
vt 0.545455 0.000000
vt 0.272728 0.157461
vt 0.454546 0.157461
vt 0.363637 0.314921
vt 0.090910 0.157461
vt 0.272728 0.157461
vt 0.181819 0.314921
vt 0.818182 0.157461
vt 1.000000 0.157461
vt 0.909091 0.314921
vt 0.636364 0.157461
vt 0.818182 0.157461
vt 0.727273 0.314921
vt 0.454546 0.157461
vt 0.636364 0.157461
vt 0.545455 0.314921
vt 0.272728 0.157461
vt 0.363637 0.314921
vt 0.181819 0.314921
vt 0.090910 0.157461
vt 0.000000 0.314921
vt 0.727273 0.314921
vt 0.727273 0.314921
vt 0.363637 0.314921
vt 0.272728 0.472382
vt 0.090910 0.472382
vt 0.818182 0.472382
vt 0.727273 0.314921
vt 0.636364 0.472382
vt 0.454546 0.472382
vn -0.0056 -0.9996 -0.0268
vn 0.2652 -0.9439 0.1967
vn -0.0991 -0.9447 0.3126
vn 0.2882 -0.9358 -0.2032
vn -0.3484 -0.9373 0.0053
vn -0.1135 -0.9308 -0.3474
vn 0.9986 0.0526 0.0000
vn 0.3035 -0.1884 0.9340
vn -0.7994 0.4835 0.3566
vn -0.5869 0.5117 0.6275
vn -0.6476 0.6439 0.4075
vn -0.7891 0.2206 -0.5733
vn 0.5148 0.3279 -0.7922
vn 0.1555 0.2863 -0.9454
vn 0.3125 0.6333 -0.7080
vn 0.6843 0.4106 0.6026
vn 0.4840 0.6629 0.5712
vn 0.0491 0.7117 0.7008
vn -0.6541 0.7388 0.1622
vn -0.0741 0.4242 -0.9025
vn 0.5738 0.6916 -0.4387
vn -0.1890 0.8580 0.4776
vn 0.0929 0.9289 -0.3586
vn 0.2620 0.9106 -0.3196
usemtl RockMat
s 1
f 1/1/1 13/2/2 16/3/3
f 13/2/2 1/4/1 18/5/4
f 1/6/1 16/7/3 20/8/5
f 1/9/1 20/8/5 22/10/6
f 1/11/1 22/10/6 18/5/4
f 14/12/7 19/13/7 24/14/7
f 17/15/8 15/16/8 26/17/8
f 21/18/9 3/19/10 8/20/11
f 23/21/12 4/22/12 27/23/12
f 6/24/13 5/25/14 10/26/15
f 2/27/16 25/28/17 7/29/18
f 3/30/10 7/29/18 8/31/11
f 21/18/9 8/20/11 28/32/19
f 5/25/14 29/33/20 10/26/15
f 6/24/13 10/26/15 11/34/21
f 7/29/18 25/28/17 30/35/22
f 8/31/11 7/29/18 30/36/22
f 28/32/19 8/20/11 30/37/22
f 10/26/15 9/38/23 12/39/24
f 11/34/21 10/26/15 12/40/24
