# Blender v3.0.0 OBJ File: ''
# www.blender.org
o Plane
v 0.000000 -0.023844 0.390498
v 2.000000 -0.023844 0.390498
v 0.000000 0.000000 -0.000000
v 2.000000 0.000000 -0.000000
v 0.000000 -0.236843 0.674496
v 2.000000 -0.236843 0.674496
v 0.000000 -0.686507 0.922995
v 2.000000 -0.686507 0.922995
v 0.000000 -1.361003 1.159660
v 2.000000 -1.361003 1.159660
v 0.000000 -1.692335 1.360826
v 2.000000 -1.692335 1.360826
v -0.000000 -2.071000 1.727657
v 2.000000 -2.071000 1.727657
v -0.000000 -2.224832 2.189155
v 2.000000 -2.224832 2.189155
vt 0.000000 0.989283
vt 1.000000 0.989283
vt 1.000000 1.000000
vt 0.000000 1.000000
vt 0.000000 0.893546
vt 1.000000 0.893546
vt 0.000000 0.691434
vt 1.000000 0.691434
vt 0.000000 0.388267
vt 1.000000 0.388267
vt 0.000000 0.239343
vt 1.000000 0.239343
vt 0.000000 0.069143
vt 1.000000 0.069143
vt 0.000000 0.000000
vt 1.000000 0.000000
vn 0.0000 0.9386 0.3450
vn 0.0000 0.9981 0.0609
vn 0.0000 0.6564 0.7544
vn 0.0000 0.4088 0.9126
vn 0.0000 0.4273 0.9041
vn 0.0000 0.6112 0.7915
vn 0.0000 0.8464 0.5325
vn 0.0000 0.9487 0.3162
s 1
f 1/1/1 2/2/1 4/3/2 3/4/2
f 2/2/1 1/1/1 5/5/3 6/6/3
f 6/6/3 5/5/3 7/7/4 8/8/4
f 8/8/4 7/7/4 9/9/5 10/10/5
f 10/10/5 9/9/5 11/11/6 12/12/6
f 12/12/6 11/11/6 13/13/7 14/14/7
f 14/14/7 13/13/7 15/15/8 16/16/8
